<svg id="Layer_1" data-name="Layer 1" xmlns="http://www.w3.org/2000/svg" viewBox="0 0 1149 197"><defs><style>.cls-1,.cls-3{fill:#c68958;}.cls-2{fill:#fff;}.cls-3{font-size:150px;font-family:FredokaOne-Regular, Fredoka One;}.cls-4{letter-spacing:-0.03em;}</style></defs><title>BB-full-logo</title><path class="cls-1" d="M74.66,1.06a28.74,28.74,0,0,1,10.69,2,40.9,40.9,0,0,1,18.46,14.24c6.1,8.7,7,17.83,7.5,22.75s1,10.42-1,17c-3.72,12-12.12,14.55-10.75,20.5,1.06,4.63,6.44,4.4,13.25,11.25a40.59,40.59,0,0,1,9.5,16.25c1.2,3.52,7.28,22.73-4.5,39.75A42.1,42.1,0,0,1,99.7,159.43a38.77,38.77,0,0,1-15.43,3.13h-76a7.2,7.2,0,0,1-7.2-7.2V5.3A4.23,4.23,0,0,1,5.29,1.06Z"/><path class="cls-2" d="M75.31,80.81c0,34.11-10.08,61.75-22.5,61.75s-22.5-27.64-22.5-61.75,10.07-60.25,22.5-60.25S75.31,46.71,75.31,80.81Z"/><ellipse class="cls-1" cx="52.81" cy="52.69" rx="11.25" ry="5.38"/><ellipse class="cls-1" cx="52.81" cy="81.56" rx="11.25" ry="5.38"/><ellipse class="cls-1" cx="52.81" cy="110.44" rx="11.25" ry="5.38"/><path class="cls-1" d="M770.66,1.06a28.74,28.74,0,0,1,10.69,2,40.9,40.9,0,0,1,18.46,14.24c6.1,8.7,7,17.83,7.5,22.75s1,10.42-1,17c-3.72,12-12.12,14.55-10.75,20.5,1.06,4.63,6.44,4.4,13.25,11.25a40.59,40.59,0,0,1,9.5,16.25c1.2,3.52,7.28,22.73-4.5,39.75a42.1,42.1,0,0,1-18.11,14.62,38.77,38.77,0,0,1-15.43,3.13h-76a7.2,7.2,0,0,1-7.2-7.2V5.3a4.23,4.23,0,0,1,4.23-4.24Z"/><path class="cls-2" d="M771.31,80.81c0,34.11-10.08,61.75-22.5,61.75s-22.5-27.64-22.5-61.75,10.07-60.25,22.5-60.25S771.31,46.71,771.31,80.81Z"/><ellipse class="cls-1" cx="748.81" cy="52.69" rx="11.25" ry="5.38"/><ellipse class="cls-1" cx="748.81" cy="81.56" rx="11.25" ry="5.38"/><ellipse class="cls-1" cx="748.81" cy="110.44" rx="11.25" ry="5.38"/><text class="cls-3" transform="translate(129.16 162.34)"><tspan class="cls-4">r</tspan><tspan x="64.05" y="0">eaking</tspan></text><text class="cls-3" transform="translate(825.16 163.34)"><tspan class="cls-4">r</tspan><tspan x="64.05" y="0">ead</tspan></text></svg>