<svg class="ldi-osza9w" width="800px"  height="800px"  xmlns="http://www.w3.org/2000/svg" xmlns:xlink="http://www.w3.org/1999/xlink" viewBox="0 0 100 100" preserveAspectRatio="xMidYMid" style="background: none;"><!--?xml version="1.0" encoding="utf-8"?--><!--Generator: Adobe Illustrator 21.0.0, SVG Export Plug-In . SVG Version: 6.00 Build 0)--><svg version="1.1" id="圖層_1" xmlns="http://www.w3.org/2000/svg" xmlns:xlink="http://www.w3.org/1999/xlink" x="0px" y="0px" viewBox="0 0 100 100" style="transform-origin: 50px 50px 0px;" xml:space="preserve"><g style="transform-origin: 50px 50px 0px;"><g style="transform-origin: 50px 50px 0px; transform: scale(1);"><g class="ld ld-spin" style="transform-origin: 50px 50px 0px; animation-duration: 1s; animation-delay: -1s; animation-direction: normal;"><g><style type="text/css" style="transform-origin: 50px 50px 0px;">.st0,.st1{stroke-width:3.5;stroke-linejoin:round;stroke-miterlimit:10}.st0{fill:#abbd80;stroke:#333}.st1{opacity:.2;stroke:#000}.st2,.st3{stroke:#333}.st2{stroke-width:3.5;stroke-linecap:round;stroke-linejoin:round;stroke-miterlimit:10;fill:none}.st3{fill:#f3e5c7}.st3,.st4,.st5{stroke-width:3.5;stroke-linejoin:round;stroke-miterlimit:10}.st4{fill:#67503b;stroke:#333}.st5{stroke:#fff;stroke-linecap:round}.st6{fill:#333}.st10,.st7,.st8,.st9{fill:#e0e0e0;stroke:#333;stroke-width:3.5;stroke-miterlimit:10}.st10,.st8,.st9{fill:#cccbca}.st10,.st9{fill:#e6e6e5}.st10{fill:#a0c7d6}.st11{fill:#e0e0e0}.st12,.st13,.st14,.st15,.st16{fill:#f3e5c7;stroke:#333;stroke-width:3.5;stroke-miterlimit:10}.st13,.st14,.st15,.st16{fill:#9dc3d1}.st14,.st15,.st16{fill:#77a4bd}.st15,.st16{fill:#b2b3b3}.st16{fill:none;stroke:#fff;stroke-width:4;stroke-linecap:round}.st17{fill:#fff}.st18,.st19,.st20{stroke-width:3.5;stroke-miterlimit:10}.st18{opacity:.2;stroke:#000}.st19,.st20{fill:#dfdfdf;stroke:#333}.st20{fill:#f6b16a}.st21{fill:#f3e5c7}.st22{fill:#f37e5f;stroke:#333;stroke-width:3.5;stroke-miterlimit:10}.st23{fill:#fff;stroke:#333}.st23,.st24,.st25{stroke-width:3.5;stroke-miterlimit:10}.st24{stroke-linecap:round;fill:none;stroke:#fff}.st25{fill:#66503a;stroke:#333}.st26,.st27,.st28,.st29,.st30{fill:none;stroke:#76a3bc;stroke-width:3.7112;stroke-linecap:round;stroke-miterlimit:10}.st27,.st28,.st29,.st30{stroke:#e15c64}.st28,.st29,.st30{stroke:#839a86}.st29,.st30{stroke:#f7b16a}.st30{stroke:#fff;stroke-width:3.5;stroke-linejoin:round}.st31{fill:#fefefe}.st32{fill:#323232}.st33{fill:#c33636;stroke:#333;stroke-width:3.5;stroke-miterlimit:10}.st34{opacity:.2}.st35,.st36,.st37{stroke-width:3.5;stroke-miterlimit:10}.st35{stroke-linecap:round;fill:#c33636;stroke:#fff}.st36,.st37{fill:#abbc80;stroke:#333}.st37{fill:#f7b16a}.st38{fill:#4a3826}.st39{fill:#f7b16a}.st40{fill:#e15b64}.st41{fill:#abbd81}.st42{fill:#ffdc6c}.st43{fill:#e15b64}.st43,.st44,.st45,.st46{stroke:#333;stroke-width:3.5;stroke-miterlimit:10}.st44{stroke-linejoin:round;fill:#abbd81}.st45,.st46{fill:#ffdc6c}.st46{fill:none;stroke-linecap:round}.st47{fill:#9dc3d1}.st48{fill:#769fb6}.st49,.st50,.st51{fill:#e2d5b9;stroke:#333;stroke-width:3.5;stroke-miterlimit:10}.st50,.st51{fill:#e15c64}.st51{fill:#f5e6c8}.st52{fill:#cccbca}.st53{fill:#e6e6e5}.st54{fill:#a0c7d6}.st55{fill:#666}.st56,.st57{fill:none;stroke-width:3.5;stroke-miterlimit:10}.st56{stroke-linecap:round;stroke:#666}.st57{stroke:#333}.st58{opacity:.2;fill:#fff}.st59{fill:#e0e0e0;stroke:#333;stroke-width:3.5;stroke-linejoin:round;stroke-miterlimit:10}.st60{fill:#abbd80}.st61{fill:#839a86}.st62{fill:#67503b}.st63,.st64,.st65{stroke-linecap:round}.st63{fill:#abbd80;stroke:#fff;stroke-width:2;stroke-miterlimit:10}.st64,.st65{stroke-linejoin:round}.st64{stroke:#333;stroke-width:3.5;stroke-miterlimit:10;fill:#abbd80}.st65{fill:#67503b}.st65,.st66,.st67,.st68{stroke:#333;stroke-width:3.5;stroke-miterlimit:10}.st66{stroke-linecap:round;stroke-linejoin:round;fill:#e0e0e0}.st67,.st68{fill:#abbd80}.st68{fill:#67503b}.st69{opacity:.3;fill:#fff}.st70,.st71{fill:none;stroke:#fff;stroke-width:3;stroke-linecap:round;stroke-miterlimit:10}.st71{fill:#f3e5c7;stroke-width:2}.st72{fill:#f8b26a}.st73{fill:#f7b16a;stroke:#333;stroke-width:3.5;stroke-linejoin:round;stroke-miterlimit:10}.st74{fill:#f4e069}.st75{fill:#e15c64}.st76,.st77{fill:#f4e069;stroke:#333;stroke-width:3.5;stroke-linejoin:round;stroke-miterlimit:10}.st77{fill:#e15c64}.st78{fill:#e15c65}.st79{fill:none;stroke:#f4e069;stroke-width:3.8671;stroke-linecap:round;stroke-miterlimit:10}.st80{fill:#e15c65;stroke:#333;stroke-width:3.5}.st80,.st81,.st82{stroke-miterlimit:10}.st81{fill:#e0e0e0;stroke-linecap:round;stroke:#fff;stroke-width:3.1169}.st82{stroke:#333;stroke-width:3.5}.st82,.st83{fill:#8c6339}.st84{fill:#a0c8d7;stroke:#333;stroke-width:3.5;stroke-miterlimit:10}.st85{fill:#76a3bc}.st86{fill:#f5e169}.st87,.st88,.st89{stroke-miterlimit:10}.st87{fill:#e0e0e0;stroke-linecap:round;stroke:#fff;stroke-width:1.7347}.st88,.st89{stroke:#000;stroke-width:3.5;stroke-linejoin:round}.st89{stroke:#333}.st89,.st90{fill:#f37e5f}.st91{fill:#e0c3c4}</style><g style="transform-origin: 50px 50px 0px;"><path class="st39" d="M82.4,64.3H17.6c-5.6,0-10.1-4.5-10.1-10.1v-1.3c0-9.5,7.7-17.2,17.2-17.2h50.6c9.5,0,17.2,7.7,17.2,17.2v1.3 C92.5,59.8,88,64.3,82.4,64.3z" fill="rgb(247, 177, 106)" style="fill: rgb(247, 177, 106);"></path></g><g style="transform-origin: 50px 50px 0px;"><path class="st34" d="M83.4,37.7c0.1,0.9,0.1,1.8,0.1,2.7c0,11.5-9.3,20.8-20.8,20.8H10.5c-0.1,0-0.1,0-0.2,0 c1.8,1.9,4.4,3.1,7.3,3.1h64.8c5.6,0,10.1-4.5,10.1-10.1v-1.3C92.5,46.3,88.8,40.6,83.4,37.7z" fill="rgb(0, 0, 0)" style="fill: rgb(0, 0, 0);"></path></g><g style="transform-origin: 50px 50px 0px;"><path class="st21" d="M22.6,49.8c1.6-2.4,2.9-4.8,4.3-6.9c1.4-2.2,2.8-4.2,4.4-5.9c0.4-0.4,0.8-0.9,1.2-1.3H26 c-1.2,1.7-2.1,3.6-2.7,5.6C22.5,44,22.2,46.9,22.6,49.8z" fill="rgb(243, 229, 199)" style="fill: rgb(243, 229, 199);"></path></g><g style="transform-origin: 50px 50px 0px;"><path class="st21" d="M37.1,49.8c1.6-2.4,2.9-4.8,4.3-6.9c1.4-2.2,2.8-4.2,4.4-5.9c0.4-0.4,0.8-0.9,1.2-1.3h-6.5 c-1.2,1.7-2.1,3.6-2.7,5.6C37,44,36.7,46.9,37.1,49.8z" fill="rgb(243, 229, 199)" style="fill: rgb(243, 229, 199);"></path></g><g style="transform-origin: 50px 50px 0px;"><path class="st21" d="M51.6,49.8c1.6-2.4,2.9-4.8,4.3-6.9c1.4-2.2,2.8-4.2,4.4-5.9c0.4-0.4,0.8-0.9,1.2-1.3H55 c-1.2,1.7-2.1,3.6-2.7,5.6C51.5,44,51.2,46.9,51.6,49.8z" fill="rgb(243, 229, 199)" style="fill: rgb(243, 229, 199);"></path></g><g style="transform-origin: 50px 50px 0px;"><path class="st21" d="M66.1,49.8c1.6-2.4,2.9-4.8,4.3-6.9c1.4-2.2,2.8-4.2,4.4-5.9c0.4-0.4,0.8-0.8,1.2-1.2c-0.2,0-0.5,0-0.7,0h-5.8 c-1.2,1.7-2.1,3.6-2.7,5.6C66,44,65.6,46.9,66.1,49.8z" fill="rgb(243, 229, 199)" style="fill: rgb(243, 229, 199);"></path></g><metadata xmlns:d="https://loading.io/stock/" style="transform-origin: 50px 50px 0px;">
<d:name style="transform-origin: 50px 50px 0px;">bread</d:name>
<d:tags style="transform-origin: 50px 50px 0px;">bread,baguette,french bread,french toast,ciabatta,food,eat</d:tags>
<d:license style="transform-origin: 50px 50px 0px;">cc-by</d:license>
<d:slug style="transform-origin: 50px 50px 0px;">osza9w</d:slug>
</metadata></g></g></g></g><style type="text/css" style="transform-origin: 50px 50px 0px;">path,ellipse,circle,rect,polygon,polyline,line { stroke-width: 0; }@keyframes ld-spin {
  0% {
    -webkit-transform: rotate(0);
    transform: rotate(0);
    animation-timing-function: cubic-bezier(0.55, 0.055, 0.675, 0.19);
  }
  50% {
    -webkit-transform: rotate(180deg);
    transform: rotate(180deg);
    animation-timing-function: cubic-bezier(0.215, 0.61, 0.355, 1);
  }
  100% {
    -webkit-transform: rotate(360deg);
    transform: rotate(360deg);
  }
}
@-webkit-keyframes ld-spin {
  0% {
    -webkit-transform: rotate(0);
    transform: rotate(0);
    animation-timing-function: cubic-bezier(0.55, 0.055, 0.675, 0.19);
  }
  50% {
    -webkit-transform: rotate(180deg);
    transform: rotate(180deg);
    animation-timing-function: cubic-bezier(0.215, 0.61, 0.355, 1);
  }
  100% {
    -webkit-transform: rotate(360deg);
    transform: rotate(360deg);
  }
}
.ld.ld-spin {
  -webkit-animation: ld-spin 1s infinite;
  animation: ld-spin 1s infinite;
}
</style></svg></svg>