<svg xmlns="http://www.w3.org/2000/svg" xmlns:xlink="http://www.w3.org/1999/xlink" version="1.1" enable-background="new 0 0 100 100" xml:space="preserve" width="90" height="90" style=""><rect id="backgroundrect" width="100%" height="100%" x="0" y="0" fill="none" stroke="none" class="" style=""/><g class="currentLayer" style=""><title>Layer 1</title><path d="M32.12790510940552,32.52312016296387 C43.98490510940552,15.168120162963866 10.298905109405517,-1.7658798370361328 2.1639051094055173,6.369120162963867 c-8.135,8.136 8.799,41.822 26.153,29.964 l48.686,52.375 c1.5630000000000002,1.681 4.146,1.729 5.769,0.10400000000000001 l1.836,-1.836 c1.6230000000000002,-1.6230000000000002 1.576,-4.205 -0.10400000000000001,-5.769 L32.12790510940552,32.52312016296387 z" id="svg_1" class=""/><path d="M89.68890510940552,12.311120162963867 l-0.24600000000000002,-0.24500000000000002 c-0.405,-0.406 -1.072,-0.41600000000000004 -1.49,-0.022000000000000006 L71.90790510940552,27.18212016296387 c-0.278,0.262 -0.7230000000000001,0.255 -0.993,-0.015000000000000003 l-0.24500000000000002,-0.24500000000000002 c-0.271,-0.271 -0.277,-0.7160000000000001 -0.016000000000000004,-0.994 l15.14,-16.045 c0.3940000000000001,-0.41700000000000004 0.38300000000000006,-1.084 -0.022000000000000006,-1.49 l-0.24400000000000002,-0.24500000000000002 c-0.406,-0.406 -1.073,-0.41600000000000004 -1.491,-0.022000000000000006 L67.98990510940551,23.264120162963867 c-0.278,0.262 -0.7250000000000001,0.255 -0.993,-0.015000000000000003 l-0.24500000000000002,-0.24600000000000002 c-0.271,-0.27 -0.277,-0.7160000000000001 -0.016000000000000004,-0.994 l15.139,-16.044 c0.3950000000000001,-0.41700000000000004 0.38400000000000006,-1.085 -0.021000000000000005,-1.491 l-0.24400000000000002,-0.24500000000000002 c-0.406,-0.406 -1.073,-0.41600000000000004 -1.491,-0.022000000000000006 L64.07190510940552,19.346120162963867 c-0.278,0.262 -0.7230000000000001,0.256 -0.994,-0.015000000000000003 l-0.24400000000000002,-0.24500000000000002 c-0.271,-0.271 -0.277,-0.7160000000000001 -0.016000000000000004,-0.994 L77.95690510940551,2.047120162963867 c0.3950000000000001,-0.41700000000000004 0.38400000000000006,-1.084 -0.021000000000000005,-1.491 l-0.24600000000000002,-0.24500000000000002 c-0.404,-0.406 -1.071,-0.41600000000000004 -1.489,-0.022000000000000006 L59.64990510940552,15.902120162963868 c-5.5,5.177 -5.772,16.425 -5.772,16.425 l-9.2,8.551 l4.599,4.276 l8.396,-9.032 c0,0 11.246,-0.273 16.426,-5.772 l15.612,-16.549 C90.10490510940552,13.383120162963866 90.09590510940552,12.716120162963868 89.68890510940552,12.311120162963867 z" id="svg_2" class=""/><path d="M1.2929051094055177,81.20912016296387 c-1.6820000000000002,1.5630000000000002 -1.729,4.145 -0.10500000000000001,5.768 l1.8370000000000002,1.836 c1.622,1.6230000000000002 4.205,1.576 5.768,-0.10400000000000001 l32.45,-34.909 l-4.85,-5.218 L1.2929051094055177,81.20912016296387 z" id="svg_3" class=""/></g></svg>