<svg xmlns="http://www.w3.org/2000/svg" xmlns:xlink="http://www.w3.org/1999/xlink" version="1.1" style="enable-background:new 0 0 512 512;" xml:space="preserve" width="512" height="512"><rect id="backgroundrect" width="100%" height="100%" x="0" y="0" fill="none" stroke="none" class="" style=""/><g class="currentLayer" style=""><title>Layer 1</title><g id="svg_1" class=""><path d="M0.0999755859375,496 c1.3,-9.7 2.3,-19.5 4,-29.1 c13.1,-70.5 49.9,-125.6 108.3,-167.1 c40.4,38.3 88,58.5 143.6,58.4 c55.4,0 102.9,-20 143.7,-58.6 c8.1,6.4 16.6,12.5 24.4,19.4 c49.2,43.7 78.2,98.2 86.1,163.7 c0.5,4.4 1.2,8.9 1.8,13.3 c0,5.3 0,10.7 0,16 c-170.7,0 -341.3,0 -512,0 C0.0999755859375,506.7 0.0999755859375,501.3 0.0999755859375,496 z" id="svg_2"/><path d="M268.0999755859375,0 c10.1,2 20.4,3.3 30.2,6.1 c60,16.7 104.4,69.8 110.6,131.9 c8.6,86.1 -54.6,161.7 -141.1,168.8 c-77.9,6.5 -149.6,-49 -162.8,-126.1 C90.7999755859375,98.3 142.2999755859375,21.5 223.9999755859375,3.4000000000000004 c6.6,-1.5 13.4,-2.3 20.1,-3.4 C252.0999755859375,0 260.0999755859375,0 268.0999755859375,0 z" id="svg_3"/></g></g></svg>