<?xml version="1.0" standalone="no"?>
<!DOCTYPE svg PUBLIC "-//W3C//DTD SVG 20010904//EN"
 "http://www.w3.org/TR/2001/REC-SVG-20010904/DTD/svg10.dtd">
<svg version="1.0" xmlns="http://www.w3.org/2000/svg"
 width="752.000000pt" height="752.000000pt" viewBox="0 0 752.000000 752.000000"
 preserveAspectRatio="xMidYMid meet">
<metadata>
Created by potrace 1.11, written by Peter Selinger 2001-2013
</metadata>
<g transform="translate(0.000000,752.000000) scale(0.100000,-0.100000)"
fill="#000000" stroke="none">
<path d="M947 7494 c-469 -85 -842 -460 -928 -934 -21 -112 -21 -5498 0 -5610
53 -289 213 -549 446 -723 101 -76 274 -160 401 -195 l99 -27 2795 0 2795 0
99 27 c381 106 687 392 805 756 59 182 56 1 56 2967 0 2966 3 2785 -56 2967
-71 220 -216 420 -404 561 -101 76 -274 160 -401 195 l-99 27 -2765 2 c-2354
1 -2777 -1 -2843 -13z"/>
</g>
</svg>
